<svg width="126" height="35" viewBox="0 0 126 35" fill="none" xmlns="http://www.w3.org/2000/svg">
<g clip-path="url(#clip0)">
<path d="M22.7167 25.8549C23.1059 27.3269 23.7339 27.8961 24.8436 27.8961C25.9942 27.8961 26.5975 27.2049 26.5975 25.8549V0.790224H33.8043V25.8549C33.8043 29.3879 33.346 30.9187 31.5546 32.7106C30.2636 34.0019 27.8823 35 24.8755 35C22.4463 35 20.1218 34.1959 18.6394 32.7108C17.3397 31.4087 16.6258 30.0712 15.5101 25.8546L11.0878 9.14511C10.6984 7.67307 10.0707 7.10411 8.96089 7.10411C7.81013 7.10411 7.20684 7.79506 7.20684 9.14511V34.21H0V9.14511C0 5.61232 0.458577 4.08126 2.24992 2.28943C3.54045 0.998645 5.92199 0 8.92903 0C11.3582 0 13.6827 0.8043 15.1651 2.28918C16.4648 3.59132 17.1787 4.92877 18.2944 9.14536L22.7167 25.8549Z" fill="white"/>
<path d="M118.049 34.21L109.726 8.17289C109.634 7.88545 109.547 7.64146 109.414 7.47873C109.185 7.20042 108.869 7.05423 108.443 7.05423C108.018 7.05423 107.702 7.20042 107.473 7.47873C107.34 7.64122 107.253 7.8852 107.161 8.17289L98.8382 34.21H91.3886L100.48 5.76765C100.954 4.28598 101.631 3.02804 102.49 2.18991C103.964 0.752441 105.702 0 108.444 0C111.185 0 112.923 0.752441 114.397 2.18966C115.256 3.02804 115.933 4.28573 116.407 5.7674L125.498 34.2098H118.049V34.21Z" fill="white"/>
<path d="M81.2147 34.21C85.9363 34.21 88.2393 33.2069 90.0588 31.3976C92.0722 29.3961 93.0352 27.2062 93.0352 23.9366C93.0352 21.0476 91.9776 18.3717 90.3673 16.7705C88.2618 14.6767 85.6467 14.0168 81.3824 14.0168L75.4096 14.0166C73.1273 14.0166 72.2178 13.7408 71.4982 13.0338C71.0041 12.5488 70.7724 11.8274 70.7724 10.9772C70.7724 10.0983 70.9841 9.23031 71.5881 8.63739C72.1242 8.11115 72.8549 7.86964 74.259 7.86964H91.5212V0.790224H75.5775C70.8559 0.790224 68.5531 1.79356 66.7334 3.60268C64.7203 5.60417 63.757 7.79383 63.757 11.0634C63.757 13.9529 64.8146 16.6285 66.425 18.2295C68.5307 20.3233 71.1456 20.9834 75.4098 20.9834L81.3829 20.9839C83.6652 20.9839 84.5747 21.2592 85.2943 21.9665C85.7884 22.4517 86.02 23.1728 86.02 24.0231C86.02 24.9019 85.8084 25.7699 85.2046 26.3629C84.6683 26.8891 83.9375 27.1306 82.5334 27.1306H64.7302L57.9019 5.76765C57.4283 4.28598 56.7511 3.02804 55.892 2.18991C54.4175 0.752441 52.68 0 49.9382 0C47.1963 0 45.4586 0.752441 43.9848 2.18966C43.1255 3.02804 42.4486 4.28573 41.9749 5.7674L32.8837 34.2098H40.333L48.656 8.17264C48.7479 7.8852 48.8346 7.64122 48.9679 7.47848C49.1966 7.20017 49.5132 7.05398 49.9387 7.05398C50.3642 7.05398 50.6805 7.20017 50.9094 7.47848C51.0428 7.64097 51.1294 7.88495 51.2211 8.17264L59.5441 34.2098H81.2147V34.21Z" fill="white"/>
</g>
<defs>
<clipPath id="clip0">
<rect width="125.498" height="35" fill="white"/>
</clipPath>
</defs>
</svg>
